<svg width="377" height="471" viewBox="0 0 377 471" fill="none" xmlns="http://www.w3.org/2000/svg">
<g opacity="0.9">
<g opacity="0.7" filter="url(#filter0_f_744_635)">
<ellipse cx="12.4659" cy="12.4794" rx="12.4659" ry="12.4794" transform="matrix(0.965926 0.258819 -0.258261 0.966075 111.866 324.652)" fill="url(#paint0_radial_744_635)"/>
</g>
<g opacity="0.7" filter="url(#filter1_f_744_635)">
<ellipse cx="24.9747" cy="25.0017" rx="24.9747" ry="25.0017" transform="matrix(0.965926 0.258819 -0.258261 0.966075 240.981 120.449)" fill="url(#paint1_radial_744_635)"/>
</g>
<path d="M325.682 84.7326C352.379 119.263 366.136 151.548 321.572 135.025M321.572 135.025C313.778 132.135 304.2 127.752 292.595 121.627C228.049 87.5598 224.455 103.815 240.396 131.63M321.572 135.025C317.162 127.07 311.008 118.097 303.949 108.967M321.572 135.025C333.843 157.158 332.619 171.414 299.839 159.26M240.396 131.63C245.22 140.049 251.834 149.527 259.089 158.989M240.396 131.63C248.541 134.736 258.602 139.391 270.862 145.862C282.467 151.987 292.045 156.37 299.839 159.26M240.396 131.63C205.655 118.386 205.75 133.332 218.662 155.865M299.839 159.26C295.428 151.304 289.274 142.331 282.216 133.201M299.839 159.26C312.109 181.392 310.886 195.648 278.105 183.494M218.662 155.865C223.487 164.284 230.101 173.762 237.356 183.224M218.662 155.865C226.808 158.97 236.869 163.626 249.129 170.096C260.733 176.221 270.311 180.604 278.105 183.494M218.662 155.865C183.922 142.621 184.016 157.567 196.929 180.099M278.105 183.494C273.695 175.539 267.541 166.566 260.482 157.436M278.105 183.494C290.376 205.626 289.153 219.883 256.372 207.728M196.929 180.099C201.753 188.518 208.367 197.996 215.622 207.458M196.929 180.099C205.074 183.205 215.135 187.86 227.395 194.331C239 200.456 248.578 204.839 256.372 207.728M196.929 180.099C162.188 166.855 162.283 181.801 175.195 204.334M256.372 207.728C251.962 199.773 245.808 190.8 238.749 181.67M256.372 207.728C268.643 229.861 267.419 244.117 234.639 231.963M175.195 204.334C180.02 212.752 186.634 222.23 193.889 231.692M175.195 204.334C183.341 207.439 193.402 212.094 205.662 218.565C217.267 224.69 226.845 229.073 234.639 231.963M175.195 204.334C140.455 191.089 140.549 206.036 153.462 228.568M234.639 231.963C230.228 224.007 224.074 215.034 217.016 205.905M234.639 231.963C246.909 254.095 245.686 268.351 212.905 256.197M153.462 228.568C158.287 236.987 164.901 246.465 172.156 255.927M153.462 228.568C161.608 231.673 171.669 236.329 183.928 242.799C195.533 248.924 205.111 253.307 212.905 256.197M153.462 228.568C118.722 215.324 118.816 230.27 131.729 252.802M212.905 256.197C208.495 248.242 202.341 239.269 195.282 230.139M212.905 256.197C225.176 278.33 223.953 292.586 191.172 280.432M131.729 252.802C136.553 261.221 143.167 270.699 150.422 280.161M131.729 252.802C139.874 255.908 149.935 260.563 162.195 267.034C173.8 273.159 183.378 277.542 191.172 280.432M131.729 252.802C96.9882 239.558 97.0827 254.504 109.995 277.037M191.172 280.432C186.761 272.476 180.607 263.503 173.549 254.373M191.172 280.432C203.443 302.564 202.219 316.82 169.439 304.666M109.995 277.037C114.82 285.456 121.434 294.934 128.689 304.396M109.995 277.037C118.141 280.142 128.202 284.798 140.462 291.268C152.067 297.393 161.645 301.776 169.439 304.666M109.995 277.037C75.2548 263.793 75.3493 278.739 88.262 301.271M169.439 304.666C165.028 296.711 158.874 287.738 151.816 278.608M169.439 304.666C181.709 326.798 180.486 341.055 147.705 328.9M88.262 301.271C93.0865 309.69 99.7006 319.168 106.956 328.63M88.262 301.271C96.4077 304.377 106.469 309.032 118.728 315.503C130.333 321.628 139.911 326.011 147.705 328.9M88.262 301.271C53.5214 288.027 53.616 302.973 66.5286 325.506M147.705 328.9C143.295 320.945 137.141 311.972 130.082 302.842M147.705 328.9C162.893 356.295 157.408 371.623 96.995 339.737C84.7352 333.266 74.6743 328.611 66.5286 325.506M66.5286 325.506C71.3532 333.924 77.9672 343.402 85.2223 352.864M66.5286 325.506C18.8079 307.313 36.8163 342.312 63.4889 377.099" stroke="url(#paint2_linear_744_635)"/>
<path d="M315.93 95.6072C342.626 130.137 356.383 162.423 311.819 145.9M311.819 145.9C304.025 143.01 294.447 138.627 282.842 132.502C218.296 98.4345 214.702 114.689 230.643 142.505M311.819 145.9C307.409 137.944 301.255 128.972 294.196 119.842M311.819 145.9C324.09 168.032 322.866 182.288 290.086 170.134M230.643 142.505C235.467 150.924 242.081 160.402 249.336 169.864M230.643 142.505C238.788 145.61 248.849 150.266 261.109 156.736C272.714 162.861 282.292 167.244 290.086 170.134M230.643 142.505C195.902 129.261 195.997 144.207 208.909 166.739M290.086 170.134C285.675 162.179 279.521 153.206 272.463 144.076M290.086 170.134C302.357 192.267 301.133 206.523 268.353 194.369M208.909 166.739C213.734 175.158 220.348 184.636 227.603 194.098M208.909 166.739C217.055 169.845 227.116 174.5 239.376 180.971C250.98 187.096 260.558 191.479 268.353 194.369M208.909 166.739C174.169 153.495 174.263 168.442 187.176 190.974M268.353 194.369C263.942 186.413 257.788 177.44 250.729 168.31M268.353 194.369C280.623 216.501 279.4 230.757 246.619 218.603M187.176 190.974C192 199.393 198.614 208.871 205.87 218.333M187.176 190.974C195.322 194.079 205.382 198.735 217.642 205.205C229.247 211.33 238.825 215.713 246.619 218.603M187.176 190.974C152.435 177.73 152.53 192.676 165.443 215.208M246.619 218.603C242.209 210.648 236.055 201.675 228.996 192.545M246.619 218.603C258.89 240.735 257.666 254.992 224.886 242.837M165.443 215.208C170.267 223.627 176.881 233.105 184.136 242.567M165.443 215.208C173.588 218.314 183.649 222.969 195.909 229.44C207.514 235.565 217.092 239.948 224.886 242.837M165.443 215.208C130.702 201.964 130.796 216.91 143.709 239.443M224.886 242.837C220.475 234.882 214.321 225.909 207.263 216.779M224.886 242.837C237.156 264.97 235.933 279.226 203.152 267.072M143.709 239.443C148.534 247.862 155.148 257.339 162.403 266.802M143.709 239.443C151.855 242.548 161.916 247.203 174.175 253.674C185.78 259.799 195.358 264.182 203.152 267.072M143.709 239.443C108.969 226.198 109.063 241.145 121.976 263.677M203.152 267.072C198.742 259.116 192.588 250.143 185.529 241.014M203.152 267.072C215.423 289.204 214.2 303.46 181.419 291.306M121.976 263.677C126.8 272.096 133.414 281.574 140.669 291.036M121.976 263.677C130.121 266.782 140.182 271.438 152.442 277.908C164.047 284.033 173.625 288.416 181.419 291.306M121.976 263.677C87.2352 250.433 87.3298 265.379 100.242 287.911M181.419 291.306C177.009 283.351 170.855 274.378 163.796 265.248M181.419 291.306C193.69 313.439 192.466 327.695 159.686 315.541M100.242 287.911C105.067 296.33 111.681 305.808 118.936 315.27M100.242 287.911C108.388 291.017 118.449 295.672 130.709 302.143C142.314 308.268 151.892 312.651 159.686 315.541M100.242 287.911C65.5019 274.667 65.5964 289.614 78.509 312.146M159.686 315.541C155.275 307.585 149.121 298.612 142.063 289.482M159.686 315.541C171.956 337.673 170.733 351.929 137.952 339.775M78.509 312.146C83.3336 320.565 89.9477 330.043 97.2027 339.505M78.509 312.146C86.6547 315.251 96.7156 319.907 108.975 326.377C120.58 332.502 130.158 336.885 137.952 339.775M78.509 312.146C43.7685 298.902 43.863 313.848 56.7757 336.38M137.952 339.775C133.542 331.82 127.388 322.847 120.329 313.717M137.952 339.775C153.14 367.17 147.655 382.498 87.242 350.612C74.9822 344.141 64.9214 339.486 56.7757 336.38M56.7757 336.38C61.6003 344.799 68.2143 354.277 75.4694 363.739M56.7757 336.38C9.05496 318.187 27.0633 353.187 53.736 387.973" stroke="url(#paint3_linear_744_635)"/>
</g>
<defs>
<filter id="filter0_f_744_635" x="96.2168" y="315.451" width="48.9355" height="48.9667" filterUnits="userSpaceOnUse" color-interpolation-filters="sRGB">
<feFlood flood-opacity="0" result="BackgroundImageFix"/>
<feBlend mode="normal" in="SourceGraphic" in2="BackgroundImageFix" result="shape"/>
<feGaussianBlur stdDeviation="6" result="effect1_foregroundBlur_744_635"/>
</filter>
<filter id="filter1_f_744_635" x="210.669" y="103.056" width="95.958" height="96.0193" filterUnits="userSpaceOnUse" color-interpolation-filters="sRGB">
<feFlood flood-opacity="0" result="BackgroundImageFix"/>
<feBlend mode="normal" in="SourceGraphic" in2="BackgroundImageFix" result="shape"/>
<feGaussianBlur stdDeviation="11.5" result="effect1_foregroundBlur_744_635"/>
</filter>
<radialGradient id="paint0_radial_744_635" cx="0" cy="0" r="1" gradientUnits="userSpaceOnUse" gradientTransform="translate(12.4659 12.4794) rotate(90) scale(14.8793 14.8632)">
<stop offset="0.419792" stop-color="#5CE4CF"/>
<stop offset="1" stop-color="#99A9FF"/>
</radialGradient>
<radialGradient id="paint1_radial_744_635" cx="0" cy="0" r="1" gradientUnits="userSpaceOnUse" gradientTransform="translate(24.9747 25.0017) rotate(90) scale(29.8097 29.7775)">
<stop offset="0.419792" stop-color="#5CE4CF"/>
<stop offset="1" stop-color="#99A9FF"/>
</radialGradient>
<linearGradient id="paint2_linear_744_635" x1="119.663" y1="248.77" x2="301.601" y2="173.922" gradientUnits="userSpaceOnUse">
<stop stop-color="#99A9FF"/>
<stop offset="1" stop-color="#5CE5CF"/>
</linearGradient>
<linearGradient id="paint3_linear_744_635" x1="223.355" y1="276.422" x2="144.141" y2="205.383" gradientUnits="userSpaceOnUse">
<stop offset="0.14407" stop-color="#99A9FF"/>
<stop offset="0.726512" stop-color="#66FFE5" stop-opacity="0.35"/>
</linearGradient>
</defs>
</svg>
