<svg width="1440" height="6590" viewBox="0 0 1440 6590" fill="none" xmlns="http://www.w3.org/2000/svg">
<path d="M1354.27 573.098C1296.22 545.724 1256.62 512.758 1326.05 504.942M1326.05 504.942C1338.19 503.575 1353.67 502.978 1372.97 503.314C1480.31 505.184 1474.16 481.665 1434.68 455.953M1326.05 504.942C1337.15 512.394 1351.21 520.022 1366.56 527.26M1326.05 504.942C1295.18 484.212 1287.26 464.854 1338.33 459.104M1434.68 455.953C1422.74 448.171 1407.74 440.187 1391.91 432.646M1434.68 455.953C1421.93 457.271 1405.64 457.831 1385.25 457.476C1365.96 457.14 1350.48 457.738 1338.33 459.104M1434.68 455.953C1489.05 450.333 1478.94 430.944 1446.97 410.115M1338.33 459.104C1349.43 466.556 1363.49 474.185 1378.84 481.422M1338.33 459.104C1307.47 438.374 1299.54 419.016 1350.62 413.267M1446.97 410.115C1435.02 402.333 1420.02 394.35 1404.19 386.809M1446.97 410.115C1434.22 411.433 1417.92 411.994 1397.54 411.639C1378.24 411.302 1362.76 411.9 1350.62 413.267M1446.97 410.115C1501.33 404.495 1491.22 385.106 1459.25 364.278M1350.62 413.267C1361.71 420.718 1375.77 428.347 1391.12 435.585M1350.62 413.267C1319.75 392.536 1311.82 373.178 1362.9 367.429M1459.25 364.278C1447.3 356.495 1432.3 348.512 1416.47 340.971M1459.25 364.278C1446.5 365.595 1430.21 366.156 1409.82 365.801C1390.52 365.465 1375.04 366.062 1362.9 367.429M1459.25 364.278C1513.62 358.658 1503.51 339.268 1471.53 318.44M1362.9 367.429C1373.99 374.881 1388.05 382.509 1403.4 389.747M1362.9 367.429C1332.03 346.699 1324.11 327.341 1375.18 321.592M1471.53 318.44C1459.58 310.658 1444.58 302.675 1428.75 295.134M1471.53 318.44C1458.78 319.758 1442.49 320.318 1422.1 319.963C1402.8 319.627 1387.32 320.225 1375.18 321.592M1471.53 318.44C1525.9 312.82 1515.79 293.431 1483.81 272.602M1375.18 321.592C1386.28 329.043 1400.33 336.672 1415.68 343.91M1375.18 321.592C1344.31 300.861 1336.39 281.503 1387.46 275.754M1483.81 272.602C1471.86 264.82 1456.86 256.837 1441.04 249.296M1483.81 272.602C1471.06 273.92 1454.77 274.481 1434.38 274.126C1415.08 273.789 1399.61 274.387 1387.46 275.754M1483.81 272.602C1538.18 266.982 1528.07 247.593 1496.09 226.765M1387.46 275.754C1398.56 283.205 1412.62 290.834 1427.97 298.072M1387.46 275.754C1356.59 255.023 1348.67 235.665 1399.74 229.916M1496.09 226.765C1484.15 218.982 1469.15 210.999 1453.32 203.458M1496.09 226.765C1483.35 228.082 1467.05 228.643 1446.66 228.288C1427.37 227.952 1411.89 228.549 1399.74 229.916M1496.09 226.765C1550.46 221.145 1540.35 201.756 1508.38 180.927M1399.74 229.916C1410.84 237.368 1424.9 244.996 1440.25 252.234M1399.74 229.916C1368.88 209.186 1360.95 189.828 1412.03 184.079M1508.38 180.927C1496.43 173.145 1481.43 165.162 1465.6 157.621M1508.38 180.927C1495.63 182.245 1479.33 182.806 1458.95 182.45C1439.65 182.114 1424.17 182.712 1412.03 184.079M1508.38 180.927C1562.75 175.307 1552.63 155.918 1520.66 135.089M1412.03 184.079C1423.12 191.53 1437.18 199.159 1452.53 206.397M1412.03 184.079C1381.16 163.348 1373.24 143.99 1424.31 138.241M1520.66 135.089C1508.71 127.307 1493.71 119.324 1477.88 111.783M1520.66 135.089C1507.91 136.407 1491.62 136.968 1471.23 136.613C1451.93 136.276 1436.45 136.874 1424.31 138.241M1520.66 135.089C1575.03 129.469 1564.92 110.08 1532.94 89.2518M1424.31 138.241C1435.4 145.692 1449.46 153.321 1464.81 160.559M1424.31 138.241C1386.1 112.581 1383.05 89.0248 1483.51 90.775C1503.9 91.1302 1520.19 90.5695 1532.94 89.2518M1532.94 89.2518C1520.99 81.4695 1505.99 73.4864 1490.16 65.9454M1532.94 89.2518C1607.62 81.532 1560.64 47.8316 1502.45 20.1078" stroke="black"/>
<path d="M-51.7948 1263.36C-94.2201 1283.38 -123.157 1307.48 -72.4105 1313.21M-72.4105 1313.21C-63.5349 1314.21 -52.2218 1314.65 -38.1171 1314.41C40.3338 1313.06 35.84 1330.26 6.99389 1349.06M-72.4105 1313.21C-64.3025 1307.76 -54.028 1302.19 -42.8106 1296.89M-72.4105 1313.21C-94.9675 1328.37 -100.755 1342.53 -63.4262 1346.74M6.99389 1349.06C-1.73684 1354.75 -12.6984 1360.59 -24.2663 1366.1M6.99389 1349.06C-2.32369 1348.1 -14.2321 1347.68 -29.1329 1347.94C-43.2376 1348.18 -54.5507 1347.74 -63.4262 1346.74M6.99389 1349.06C46.7324 1353.18 39.3452 1367.36 15.9781 1382.59M-63.4262 1346.74C-55.3183 1341.29 -45.0438 1335.71 -33.8264 1330.42M-63.4262 1346.74C-85.9832 1361.9 -91.7712 1376.06 -54.442 1380.27M15.9781 1382.59C7.24737 1388.28 -3.71421 1394.12 -15.2821 1399.63M15.9781 1382.59C6.66051 1381.63 -5.24792 1381.21 -20.1487 1381.47C-34.2534 1381.71 -45.5665 1381.27 -54.442 1380.27M15.9781 1382.59C55.7166 1386.71 48.3294 1400.89 24.9623 1416.12M-54.442 1380.27C-46.3341 1374.82 -36.0596 1369.24 -24.8422 1363.95M-54.442 1380.27C-76.999 1395.43 -82.787 1409.59 -45.4578 1413.8M24.9623 1416.12C16.2316 1421.81 5.27001 1427.65 -6.29785 1433.16M24.9623 1416.12C15.6447 1415.16 3.7363 1414.74 -11.1645 1415C-25.2692 1415.24 -36.5823 1414.8 -45.4578 1413.8M24.9623 1416.12C64.7008 1420.24 57.3136 1434.42 33.9465 1449.65M-45.4578 1413.8C-37.3499 1408.35 -27.0754 1402.77 -15.858 1397.48M-45.4578 1413.8C-68.0148 1428.96 -73.8028 1443.12 -36.4736 1447.33M33.9465 1449.65C25.2158 1455.34 14.2542 1461.18 2.68636 1466.69M33.9465 1449.65C24.6289 1448.68 12.7205 1448.27 -2.18027 1448.53C-16.285 1448.77 -27.5981 1448.33 -36.4736 1447.33M33.9465 1449.65C73.685 1453.77 66.2979 1467.95 42.9307 1483.18M-36.4736 1447.33C-28.3657 1441.88 -18.0912 1436.3 -6.87376 1431.01M-36.4736 1447.33C-59.0306 1462.49 -64.8186 1476.65 -27.4894 1480.86M42.9307 1483.18C34.2 1488.87 23.2384 1494.71 11.6706 1500.22M42.9307 1483.18C33.6131 1482.21 21.7047 1481.8 6.80394 1482.06C-7.30078 1482.3 -18.6138 1481.86 -27.4894 1480.86M42.9307 1483.18C82.6692 1487.3 75.2821 1501.48 51.9149 1516.71M-27.4894 1480.86C-19.3815 1475.41 -9.10697 1469.83 2.11045 1464.54M-27.4894 1480.86C-50.0464 1496.02 -55.8344 1510.18 -18.5052 1514.39M51.9149 1516.71C43.1842 1522.4 32.2226 1528.24 20.6548 1533.75M51.9149 1516.71C42.5973 1515.74 30.6889 1515.33 15.7881 1515.59C1.68343 1515.83 -9.62962 1515.39 -18.5052 1514.39M51.9149 1516.71C91.6534 1520.83 84.2663 1535.01 60.8991 1550.24M-18.5052 1514.39C-10.3972 1508.94 -0.122763 1503.36 11.0947 1498.07M-18.5052 1514.39C-41.0622 1529.55 -46.8502 1543.7 -9.52098 1547.92M60.8991 1550.24C52.1684 1555.93 41.2068 1561.77 29.639 1567.28M60.8991 1550.24C51.5816 1549.27 39.6731 1548.86 24.7724 1549.12C10.6676 1549.36 -0.645418 1548.92 -9.52098 1547.92M60.8991 1550.24C100.638 1554.36 93.2505 1568.54 69.8834 1583.77M-9.52098 1547.92C-1.41304 1542.47 8.86144 1536.89 20.0789 1531.6M-9.52098 1547.92C-32.078 1563.08 -37.866 1577.23 -0.536774 1581.45M69.8834 1583.77C61.1526 1589.46 50.191 1595.3 38.6232 1600.81M69.8834 1583.77C60.5658 1582.8 48.6573 1582.39 33.7566 1582.65C19.6518 1582.89 8.33879 1582.45 -0.536774 1581.45M69.8834 1583.77C109.622 1587.89 102.235 1602.07 78.8676 1617.3M-0.536774 1581.45C7.57117 1576 17.8457 1570.42 29.0631 1565.13M-0.536774 1581.45C-28.457 1600.21 -30.6861 1617.44 42.7408 1616.18C57.6415 1615.92 69.55 1616.33 78.8676 1617.3M78.8676 1617.3C70.1368 1622.99 59.1753 1628.83 47.6074 1634.34M78.8676 1617.3C133.454 1622.96 99.1199 1647.6 56.5916 1667.87" stroke="black"/>
<path d="M1357.86 5054.71C1303.56 5029.11 1266.52 4998.27 1331.46 4990.96M1331.46 4990.96C1342.82 4989.68 1357.3 4989.12 1375.35 4989.44C1475.75 4991.19 1470 4969.19 1433.08 4945.14M1331.46 4990.96C1341.84 4997.93 1354.99 5005.07 1369.35 5011.84M1331.46 4990.96C1302.59 4971.57 1295.18 4953.46 1342.95 4948.08M1433.08 4945.14C1421.9 4937.86 1407.87 4930.39 1393.06 4923.34M1433.08 4945.14C1421.15 4946.37 1405.91 4946.89 1386.84 4946.56C1368.79 4946.25 1354.31 4946.81 1342.95 4948.08M1433.08 4945.14C1483.93 4939.88 1474.47 4921.74 1444.56 4902.26M1342.95 4948.08C1353.33 4955.05 1366.48 4962.19 1380.84 4968.96M1342.95 4948.08C1314.08 4928.69 1306.67 4910.59 1354.44 4905.21M1444.56 4902.26C1433.39 4894.98 1419.36 4887.51 1404.55 4880.46M1444.56 4902.26C1432.64 4903.49 1417.4 4904.02 1398.33 4903.69C1380.28 4903.37 1365.8 4903.93 1354.44 4905.21M1444.56 4902.26C1495.42 4897 1485.96 4878.87 1456.05 4859.38M1354.44 4905.21C1364.82 4912.18 1377.97 4919.31 1392.33 4926.08M1354.44 4905.21C1325.57 4885.82 1318.15 4867.71 1365.93 4862.33M1456.05 4859.38C1444.88 4852.1 1430.85 4844.64 1416.04 4837.58M1456.05 4859.38C1444.13 4860.62 1428.89 4861.14 1409.82 4860.81C1391.77 4860.49 1377.29 4861.05 1365.93 4862.33M1456.05 4859.38C1506.91 4854.13 1497.45 4835.99 1467.54 4816.51M1365.93 4862.33C1376.31 4869.3 1389.46 4876.44 1403.82 4883.21M1365.93 4862.33C1337.05 4842.94 1329.64 4824.83 1377.42 4819.46M1467.54 4816.51C1456.37 4809.23 1442.34 4801.76 1427.53 4794.71M1467.54 4816.51C1455.62 4817.74 1440.38 4818.27 1421.31 4817.93C1403.25 4817.62 1388.78 4818.18 1377.42 4819.46M1467.54 4816.51C1518.4 4811.25 1508.94 4793.11 1479.03 4773.63M1377.42 4819.46C1387.8 4826.43 1400.95 4833.56 1415.3 4840.33M1377.42 4819.46C1348.54 4800.07 1341.13 4781.96 1388.91 4776.58M1479.03 4773.63C1467.85 4766.35 1453.82 4758.89 1439.02 4751.83M1479.03 4773.63C1467.11 4774.86 1451.86 4775.39 1432.79 4775.06C1414.74 4774.74 1400.26 4775.3 1388.91 4776.58M1479.03 4773.63C1529.89 4768.38 1520.43 4750.24 1490.52 4730.76M1388.91 4776.58C1399.28 4783.55 1412.43 4790.69 1426.79 4797.46M1388.91 4776.58C1360.03 4757.19 1352.62 4739.08 1400.39 4733.7M1490.52 4730.76C1479.34 4723.48 1465.31 4716.01 1450.51 4708.96M1490.52 4730.76C1478.59 4731.99 1463.35 4732.51 1444.28 4732.18C1426.23 4731.87 1411.75 4732.43 1400.39 4733.7M1490.52 4730.76C1541.38 4725.5 1531.92 4707.36 1502.01 4687.88M1400.39 4733.7C1410.77 4740.67 1423.92 4747.81 1438.28 4754.58M1400.39 4733.7C1371.52 4714.31 1364.11 4696.21 1411.88 4690.83M1502.01 4687.88C1490.83 4680.6 1476.8 4673.13 1461.99 4666.08M1502.01 4687.88C1490.08 4689.11 1474.84 4689.64 1455.77 4689.3C1437.72 4688.99 1423.24 4689.55 1411.88 4690.83M1502.01 4687.88C1552.86 4682.62 1543.41 4664.49 1513.5 4645M1411.88 4690.83C1422.26 4697.8 1435.41 4704.93 1449.77 4711.7M1411.88 4690.83C1383.01 4671.44 1375.6 4653.33 1423.37 4647.95M1513.5 4645C1502.32 4637.72 1488.29 4630.26 1473.48 4623.2M1513.5 4645C1501.57 4646.24 1486.33 4646.76 1467.26 4646.43C1449.21 4646.11 1434.73 4646.67 1423.37 4647.95M1513.5 4645C1564.35 4639.75 1554.89 4621.61 1524.98 4602.13M1423.37 4647.95C1433.75 4654.92 1446.9 4662.06 1461.26 4668.83M1423.37 4647.95C1387.63 4623.95 1384.78 4601.92 1478.75 4603.55C1497.82 4603.88 1513.06 4603.36 1524.98 4602.13M1524.98 4602.13C1513.81 4594.85 1499.78 4587.38 1484.97 4580.33M1524.98 4602.13C1594.84 4594.91 1550.9 4563.38 1496.46 4537.45" stroke="black"/>
<path d="M55.7367 6578.2C86.2678 6563.8 107.094 6546.47 70.579 6542.36M70.579 6542.36C64.1926 6541.64 56.0521 6541.32 45.9028 6541.5C-10.5482 6542.48 -7.31187 6530.11 13.4479 6516.59M70.579 6542.36C64.7439 6546.27 57.3498 6550.29 49.2773 6554.09M70.579 6542.36C86.8128 6531.45 90.9799 6521.27 64.1196 6518.25M13.4479 6516.59C19.7312 6512.5 27.6197 6508.3 35.9444 6504.33M13.4479 6516.59C20.1524 6517.28 28.7212 6517.58 39.4434 6517.39C49.5928 6517.22 57.7332 6517.53 64.1196 6518.25M13.4479 6516.59C-15.146 6513.64 -9.8282 6503.44 6.98849 6492.48M64.1196 6518.25C58.2845 6522.17 50.8904 6526.18 42.8179 6529.99M64.1196 6518.25C80.3534 6507.35 84.5205 6497.17 57.6602 6494.14M6.98849 6492.48C13.2718 6488.39 21.1603 6484.19 29.485 6480.23M6.98849 6492.48C13.693 6493.18 22.2618 6493.47 32.984 6493.29C43.1334 6493.11 51.2738 6493.42 57.6602 6494.14M6.98849 6492.48C-21.6054 6489.53 -16.2876 6479.33 0.529091 6468.38M57.6602 6494.14C51.8251 6498.06 44.431 6502.07 36.3585 6505.88M57.6602 6494.14C73.894 6483.24 78.0611 6473.06 51.2008 6470.04M0.529091 6468.38C6.81236 6464.29 14.7009 6460.09 23.0256 6456.12M0.529091 6468.38C7.23358 6469.07 15.8024 6469.37 26.5246 6469.18C36.674 6469 44.8144 6469.32 51.2008 6470.04M0.529091 6468.38C-28.0648 6465.42 -22.747 6455.23 -5.9303 6444.27M51.2008 6470.04C45.3657 6473.95 37.9717 6477.97 29.8991 6481.77M51.2008 6470.04C67.4346 6459.13 71.6017 6448.95 44.7414 6445.93M-5.9303 6444.27C0.352966 6440.18 8.2415 6435.98 16.5662 6432.01M-5.9303 6444.27C0.774186 6444.96 9.34305 6445.26 20.0652 6445.07C30.2146 6444.9 38.355 6445.21 44.7414 6445.93M-5.9303 6444.27C-34.5242 6441.32 -29.2064 6431.12 -12.3897 6420.16M44.7414 6445.93C38.9063 6449.85 31.5123 6453.86 23.4397 6457.67M44.7414 6445.93C60.9752 6435.03 65.1423 6424.85 38.282 6421.82M-12.3897 6420.16C-6.10643 6416.07 1.7821 6411.87 10.1069 6407.91M-12.3897 6420.16C-5.68521 6420.86 2.88365 6421.15 13.6058 6420.97C23.7552 6420.79 31.8956 6421.1 38.282 6421.82M-12.3897 6420.16C-40.9836 6417.21 -35.6658 6407.01 -18.8491 6396.06M38.282 6421.82C32.447 6425.74 25.0529 6429.75 16.9803 6433.56M38.282 6421.82C54.5158 6410.92 58.6829 6400.74 31.8226 6397.72M-18.8491 6396.06C-12.5658 6391.96 -4.67729 6387.77 3.64746 6383.8M-18.8491 6396.06C-12.1446 6396.75 -3.57574 6397.05 7.14643 6396.86C17.2958 6396.68 25.4362 6397 31.8226 6397.72M-18.8491 6396.06C-47.443 6393.1 -42.1252 6382.91 -25.3085 6371.95M31.8226 6397.72C25.9875 6401.63 18.5935 6405.65 10.5209 6409.45M31.8226 6397.72C48.0564 6386.81 52.2235 6376.63 25.3632 6373.61M-25.3085 6371.95C-19.0252 6367.86 -11.1367 6363.66 -2.81194 6359.69M-25.3085 6371.95C-18.604 6372.64 -10.0351 6372.94 0.687031 6372.75C10.8364 6372.58 18.9768 6372.89 25.3632 6373.61M-25.3085 6371.95C-53.9024 6369 -48.5846 6358.8 -31.7679 6347.84M25.3632 6373.61C19.5282 6377.53 12.1341 6381.54 4.06152 6385.35M25.3632 6373.61C41.597 6362.71 45.7641 6352.53 18.9039 6349.5M-31.7679 6347.84C-25.4846 6343.75 -17.5961 6339.55 -9.27133 6335.59M-31.7679 6347.84C-25.0634 6348.54 -16.4945 6348.83 -5.77236 6348.65C4.37699 6348.47 12.5174 6348.78 18.9039 6349.5M-31.7679 6347.84C-60.3618 6344.89 -55.044 6334.69 -38.2273 6323.74M18.9039 6349.5C13.0688 6353.42 5.67468 6357.43 -2.39787 6361.24M18.9039 6349.5C38.9974 6336.01 40.6041 6323.62 -12.2318 6324.54C-22.9539 6324.73 -31.5228 6324.43 -38.2273 6323.74M-38.2273 6323.74C-31.944 6319.64 -24.0555 6315.45 -15.7307 6311.48M-38.2273 6323.74C-77.5048 6319.68 -52.7954 6301.95 -22.1901 6287.37" stroke="black"/>
</svg>
